<?xml version="1.0" encoding="UTF-8"?>
<svg id="a"
    xmlns="http://www.w3.org/2000/svg" viewBox="0 0 1088.72 287.45">
    <path d="M507.92,227.29h-37.46l-55.4-97.27v97.27h-37.68V70.98h37.68l55.3,97.27v-97.27h37.58v156.31h-.01Z" style="fill:#fff;"/>
    <path d="M708.1,152.35c0,15.24-2.83,28.74-8.48,40.47-5.65,11.73-13.69,20.78-24.1,27.1-10.41,6.34-22.28,9.5-35.59,9.5s-25.12-3.06-35.43-9.18c-10.31-6.12-18.34-14.87-24.1-26.25-5.77-11.38-8.79-24.45-9.07-39.19v-8.8c0-15.32,2.81-28.83,8.43-40.53,5.61-11.7,13.67-20.74,24.16-27.1,10.49-6.36,22.42-9.55,35.8-9.55s25.04,3.15,35.43,9.45c10.38,6.3,18.45,15.27,24.21,26.89,5.77,11.63,8.67,24.96,8.75,39.99v7.19h0ZM669.77,145.81c0-15.53-2.59-27.32-7.79-35.37s-12.61-12.08-22.28-12.08c-18.9,0-28.88,14.17-29.95,42.51l-.1,11.49c0,15.32,2.54,27.09,7.62,35.32,5.08,8.23,12.64,12.34,22.66,12.34s16.85-4.04,22.01-12.13c5.16-8.09,7.77-19.72,7.84-34.89v-7.19h-.01Z" style="fill:#fff;"/>
    <path d="M829.81,184.77l31.14-113.8h42.09l-52.6,156.31h-41.22l-52.17-156.31h41.76l31.03,113.8h-.01Z" style="fill:#fff;"/>
    <path d="M1039.11,198.09h-51.64l-9.02,29.2h-40.26l57.33-156.31h35.43l57.76,156.31h-40.47l-9.13-29.2h0ZM996.49,169h33.6l-16.85-54.22-16.75,54.22Z" style="fill:#fff;"/>
    <path d="M226.71,14.54h-1.04c-15.84,28.69-49.56,37.46-79.51,43.32-52.07,10.15-115.93,10.86-127.66,75.58-4.81,26.57-1.14,53.21,14.36,75.62-10.77,14.03-20.6,29.69-28.16,45.72-2.72,5.78-6.49,11.32-3.75,17.74,2.34,5.51,7.86,8.62,13.83,9.39.97-5.41,7.01-36.79,21.82-67.75,2.68-5.61,5.64-11.2,8.92-16.62-6.78-10.43-8.34-18.86-8.34-18.86-.86-2.87-1.56-5.83-2.1-8.85-1.84-10.41-1.69-21.62.42-33.3,3.62-19.94,12.93-32.79,30.18-41.68,16.98-8.75,39.67-12.5,61.63-16.13,7.3-1.21,14.85-2.45,22.15-3.89,5.47-1.07,11.99-2.34,19.05-4.09,0,0,21.29-5.05,37.71-13.63,9.69-12.47,17.17-26.54,20.66-42.21-.05-.11-.11-.23-.17-.34Z" style="fill:#fff;"/>
    <path d="M226.89,14.91c-.42,2.41-2.95,16.28-8.46,34.05,0,0,6.69,21.27,7.04,31.31.34,5.37.43,10.82.29,16.32-.5,19.48-3.96,38.33-10.17,55.51-1.51,4.18-2.86,8.37-4.64,12.46-2.91,6.69-6.81,12.89-11,18.86-6.03,8.61-12.61,16.65-20.6,23.56-8.7,7.52-18.63,13.55-29.34,17.73-6.72,2.62-13.77,4.57-20.89,5.73-6.27,1.05-12.4,1.59-18.22,1.59-9.21,0-17.91-1.33-25.86-3.99-2.59-.86-5.12-1.87-7.59-3.02,0,0-10.34-4.43-15.14-9.44-4.15,4.09-7.92,8.39-11.48,12.88-4.48,5.61-8.62,11.52-12.8,17.65-.47.7-.9,1.41-1.36,2.11-7.26,11.19-14.39,22.48-21.55,33.74.86.09,1.73.14,2.59.14,6.22,0,12.46-2.49,15.74-7.47,4.86-15.71,10.74-31.03,17.79-45.85,17.64,14.38,38.07,20.52,59.66,20.52,6.93,0,13.98-.63,21.09-1.83,102.25-17.22,134.05-148.78,94.88-232.56h.01ZM156.29,141.5c2.74,1.38,6.63,3.34,10.93,5.51-4.31-2.18-8.19-4.14-10.93-5.51ZM152.24,139.45h0s1.55.79,4.06,2.06c-2.36-1.19-3.86-1.96-4.05-2.06h-.01Z" style="fill:#fff;"/>
    <path d="M32.86,209.05s6.59,10.36,18.39,19.72" style="fill:none;"/>
    <path d="M218.43,48.96c-3.28,2.97-7.56,5.7-12.22,8.14" style="fill:none;"/>
    <path d="M97.88,117.6l-27.6,9.47,21.88,14.54c-14.05,6.06-26.8,15.39-37.97,27.83-.05-.24-.09-.5-.14-.74-1.54-8.7-1.4-18.2.41-28.22,2.82-15.52,9.37-24.63,22.61-31.45,14.95-7.71,36.49-11.26,57.38-14.73l.15-.03c5.41-.89,10.95-1.8,16.46-2.82-27.46,17.12-52.78,26-53.17,26.14h0Z" style="fill:#fff;"/>
    <path d="M62.32,215.57c-.6-.62-1.12-1.26-1.51-1.89" style="fill:none;"/>
    <path d="M185.38,175.12c-.33.48-.67.97-1.02,1.45-14.94,20.88-34.76,33.52-59.03,37.6-5.49.93-10.82,1.4-15.84,1.4-3.73,0-7.37-.25-10.83-.77-3.66-.55-7.15-1.37-10.46-2.48-.9-.29-1.79-.62-2.67-.97,7.77-5.93,16.64-11.81,26.81-17.79,11.39-6.69,24.93-11.51,41.35-14.73,2.79-.53,5.27-.98,7.65-1.35,3.63-.58,7.45-1.07,11.37-1.46,3.9-.39,7.77-.67,11.53-.85.38-.01.76-.04,1.14-.05h0Z" style="fill:#fff;"/>
    <path d="M208.46,101.83c-.99,15.49-4.03,30.31-9.02,44.13-.09.25-.18.52-.25.77-.03.09-.05.19-.09.28-1.35-.66-3.04-1.52-4.95-2.49-.58-.29-1.94-.98-1.94-.98-.48-.24-.97-.48-1.47-.74,0,0-4.88-2.46-5.13-2.59-1.02-.52-2.03-1.03-2.97-1.5-.41-.2-2.78-1.4-2.78-1.4.04-.03.25-.2.25-.2,1.21-1.02,2.4-2.07,3.61-3.17l1.23-1.16c.52-.5,1.03-.99,1.54-1.5l.72-.71c8.25-8.38,15.3-18.34,21.26-28.75h0Z" style="fill:#fff;"/>
    <path d="M156.05,138.02c-1.24.51-2.51.99-3.81,1.42.19.1,1.69.86,4.05,2.06,2.74,1.37,6.63,3.33,10.93,5.51,1.33.66,2.71,1.36,4.09,2.06.7.34,1.4.7,2.1,1.05l3.16,1.6c.7.36,1.41.7,2.11,1.05,1.04.52,2.07,1.04,3.09,1.56.34.17.69.34,1.02.51,1.33.67,2.64,1.33,3.89,1.96.62.32,1.22.62,1.82.91.58.29,1.16.58,1.7.86,4.42,2.22,7.54,3.8,8.06,4.06-.83-.33-2.62-.03-3.44-.03-3.28-.01-6.54.06-9.82.22-4.1.19-8.2.5-12.29.9-4.08.41-8.17.93-12.22,1.57-2.71.42-5.4.9-8.09,1.42-16.07,3.15-31.76,8.14-45.92,16.46-13.6,8-26.8,16.87-38.7,27.28-1.89,1.65-3.71,3.35-5.45,5.09-4.15,4.09-7.92,8.39-11.48,12.88-4.48,5.61-8.62,11.52-12.8,17.65-.47.7-.9,1.41-1.36,2.11-7.26,11.19-14.39,22.48-21.55,33.74l-.34-.05c.01-.1.04-.22.06-.34.03-.18.06-.37.1-.58.2-1.09.52-2.68.94-4.69.14-.66.29-1.37.46-2.13.03-.13.06-.25.09-.39.11-.53.24-1.08.37-1.65.33-1.44.7-2.98,1.1-4.64.17-.67.33-1.35.51-2.04.29-1.18.61-2.41.95-3.68.17-.6.33-1.22.5-1.84.62-2.25,1.3-4.62,2.03-7.09.14-.51.3-1.02.46-1.54,1.37-4.48,2.93-9.28,4.74-14.25.33-.93.67-1.85,1.02-2.78.84-2.25,1.71-4.52,2.65-6.82.56-1.38,1.14-2.79,1.74-4.19.24-.58.5-1.17.76-1.77.32-.75.65-1.5.99-2.25.72-1.63,1.49-3.26,2.26-4.89.03-.06.05-.13.09-.19,1.46-3.05,3.01-6.11,4.65-9.14.27-.5.53-.99.81-1.49.53-.98,1.09-1.96,1.66-2.95.28-.48.56-.98.85-1.46.3-.52.62-1.05.94-1.59,16.85-27.9,42.08-49.02,77.36-51.02l-25.12-16.69s70.87-24.32,108.46-72.72c.09-.11.18-.22.25-.33.52-.67,1.03-1.35,1.54-2.03,1.82-2.44,3.54-4.94,5.18-7.51.47-.76.95-1.52,1.41-2.3.41-.66.8-1.33,1.18-2.01.22-.36.42-.72.62-1.09.01-.01.03-.04.04-.06.37-.65.74-1.31,1.08-1.97.93-1.73,1.8-3.49,2.63-5.27.38-.8.75-1.61,1.1-2.43.47-1.1.93-2.21,1.37-3.33.32-.81.62-1.63.91-2.44.34-.93.66-1.87.97-2.81.25-.79.51-1.57.74-2.36.1-.32.19-.65.29-.98.2-.71.39-1.42.58-2.15.05-.22.11-.43.17-.65.22-.84.41-1.68.6-2.51v.03c-.41,2.41-2.93,16.28-8.45,34.05-7.21,23.22-19.52,53.1-38.89,72.75-.66.65-1.32,1.31-1.99,1.96-.34.32-.67.63-1.02.95-1.03.94-2.07,1.85-3.12,2.74-.71.58-1.42,1.17-2.15,1.73-2.17,1.68-4.42,3.24-6.74,4.65-.77.47-1.56.91-2.36,1.36-1.18.65-2.39,1.26-3.62,1.84-.83.38-1.65.74-2.49,1.09h0Z" style="fill:#ffcf0d;"/>
    <path d="M225.05,0l-3.15,13.84c-.18.76-.34,1.51-.57,2.39l-.05.19c-.03.13-.06.25-.09.38-.18.67-.36,1.33-.52,1.89l-.3,1.05c-.22.74-.46,1.47-.7,2.21-.28.88-.57,1.75-.91,2.65-.28.77-.56,1.54-.85,2.29-.43,1.08-.88,2.15-1.31,3.17-.33.76-.67,1.52-1.05,2.31-.81,1.74-1.65,3.43-2.53,5.07-.23.42-.46.85-.7,1.27l-.37.65c-.17.32-.33.62-.51.91l-.08.14c-.36.61-.72,1.23-1.14,1.92-.32.53-.63,1.07-.97,1.59l-.36.56c-1.55,2.45-3.23,4.88-4.98,7.21-.48.66-.97,1.31-1.47,1.96l-.24.32c-9.22,11.89-20.6,22.3-32.44,31.25-2.91,2.2-5.85,4.31-8.8,6.32-32.02,21.98-64.39,33.3-64.86,33.45l-9.73,3.35,22.38,14.86c-27.27,5.63-50.43,23.28-67.6,51.7-.33.55-.65,1.09-.91,1.55-.24.39-.47.79-.7,1.18l-.22.38c-.6,1.03-1.17,2.03-1.69,2.98-.29.53-.57,1.05-.85,1.57-1.6,2.95-3.17,6.06-4.71,9.25-.08.14-.14.28-.19.42-.79,1.63-1.55,3.28-2.25,4.85-.37.8-.71,1.59-1.02,2.29-.28.65-.56,1.28-.79,1.84-.61,1.44-1.21,2.87-1.78,4.27-.86,2.15-1.75,4.42-2.71,6.97l-.05.11c-.33.91-.67,1.83-.98,2.71-1.65,4.52-3.23,9.26-4.84,14.55l-.18.56c-.1.36-.2.71-.28.95-.75,2.5-1.42,4.91-2.07,7.24-.17.61-.32,1.21-.5,1.83-.34,1.3-.67,2.57-.97,3.75-.18.71-.36,1.4-.52,2.08-.41,1.68-.79,3.25-1.13,4.74l-.11.55c-.09.39-.18.77-.28,1.24-.03.11-.05.23-.06.29-.18.77-.33,1.5-.47,2.17-.43,2.06-.75,3.67-.97,4.84l-.03.15c-.04.14-.06.29-.08.43-.05.22-.09.42-.1.61l-.61,4.91,8.51,1.26,6.36-10.01c5.52-8.7,11.23-17.69,16.92-26.45.2-.32.41-.63.61-.95.24-.37.47-.74.7-1.08,3.85-5.65,8.04-11.66,12.59-17.36,3.7-4.66,7.32-8.72,11.09-12.45,1.69-1.68,3.44-3.31,5.21-4.85,10.35-9.07,22.76-17.81,37.92-26.72,12.32-7.24,26.82-12.42,44.31-15.86,2.91-.56,5.5-1,7.94-1.38,3.81-.61,7.82-1.13,11.91-1.54,4.06-.41,8.12-.7,12.03-.89,3.06-.14,5.94-.2,8.84-.2.58-.01,1.18,0,2.07-.08.18-.01.41-.03.61-.04.18-.01.34-.01.43-.01-.01,0-.15-.01-.39-.08-.11-.04-.25-.08-.42-.14l4.2-9.23c-.52-.28-3.66-1.85-8.06-4.08-.56-.28-1.14-.57-1.79-.9-.53-.25-1.07-.53-1.63-.81l-.14-.08c-1.22-.61-2.49-1.24-3.9-1.96l-.3-.17c-.24-.11-.47-.23-.71-.36-1.02-.51-2.04-1.03-3.05-1.54-.37-.18-.74-.37-1.1-.55-.33-.17-.67-.33-1.02-.51l-3.15-1.6c-.72-.37-1.44-.74-2.11-1.05l-.84-.43c-1.12-.56-2.21-1.12-3.24-1.63-1.89-.95-3.7-1.87-5.36-2.71.15-.09.3-.17.46-.25.85-.47,1.7-.95,2.53-1.45,2.4-1.46,4.84-3.14,7.21-4.98.76-.58,1.52-1.21,2.31-1.87,1.12-.93,2.22-1.9,3.3-2.9l1.09-1.02c.48-.47.97-.95,1.45-1.42l.63-.63c20.37-20.66,33.07-52.08,40.13-74.8,5.59-18.03,8.15-32.05,8.61-34.68l.27-1.68L225.05,0h0ZM19.8,282.69l-2.6-.5,2.62.38s-.01.08-.01.11h0ZM175.97,118.07l-.6.6c-.44.44-.9.89-1.28,1.26l-.99.93c-.98.9-1.97,1.77-2.92,2.58-.67.55-1.35,1.1-2.03,1.63-2.08,1.61-4.19,3.06-6.27,4.33-.72.43-1.45.84-2.17,1.24-1.04.57-2.13,1.13-3.3,1.68-.76.36-1.54.69-2.31,1.02-1.27.52-2.4.94-3.47,1.3l-11.23,3.75,10.45,5.56c.19.1,1.73.88,4.17,2.12,2.73,1.36,6.6,3.31,10.95,5.51,1.05.52,2.12,1.07,3.2,1.61l.91.46c.67.33,1.35.67,2.03,1.03l3.15,1.59c.37.19.74.37,1.1.56.33.17.67.33,1.04.52l1.68.84c-1.96.15-3.92.32-5.89.52-4.29.42-8.5.97-12.5,1.6-2.54.39-5.25.88-8.28,1.46-18.66,3.66-34.2,9.25-47.52,17.07-15.72,9.25-28.64,18.35-39.46,27.83-1.94,1.69-3.86,3.48-5.68,5.31-4.05,3.99-7.94,8.34-11.89,13.32-4.75,5.94-9.07,12.15-13.04,17.98-.3.44-.58.89-.86,1.33-.18.28-.36.56-.55.85-1.88,2.88-3.75,5.8-5.63,8.71.08-.25.15-.51.24-.77l.18-.61c1.55-5.07,3.07-9.65,4.66-14.03.32-.88.63-1.75.99-2.72.91-2.45,1.77-4.62,2.62-6.69.53-1.35,1.1-2.73,1.71-4.15.23-.53.46-1.08.75-1.71.29-.71.61-1.41.95-2.17.71-1.59,1.45-3.17,2.21-4.76l.05-.13.03-.05c1.49-3.09,3.01-6.1,4.55-8.94.25-.47.5-.93.8-1.46.51-.94,1.05-1.88,1.6-2.83l.23-.41c.19-.32.37-.65.61-1.03.29-.51.61-1.04.9-1.54,12.67-20.98,35.67-46.44,73.29-48.56l15.23-.86-29.6-19.66c20.43-8.31,69.23-30.96,99.68-68.62-7.11,19.05-17.68,40.63-32.49,55.64h0Z" style="fill:#024;"/>
</svg>
