<?xml version="1.0" encoding="UTF-8"?>
<svg id="Layer_1" data-name="Layer 1" xmlns="http://www.w3.org/2000/svg" xmlns:xlink="http://www.w3.org/1999/xlink" viewBox="0 0 3445.45 3445.45">
  <defs>
    <style>
      .cls-1, .cls-2 {
        fill: none;
      }

      .cls-2 {
        stroke: #fff;
        stroke-dasharray: 218.07 218.07;
        stroke-width: 87.23px;
      }

      .cls-3 {
        clip-path: url(#clippath);
      }
    </style>
    <clipPath id="clippath">
      <rect class="cls-1" x="981.31" y="414.34" width="1461.04" height="2616.8"/>
    </clipPath>
  </defs>
  <circle class="cls-2" cx="1722.73" cy="1722.73" r="1679.11"/>
  <g class="cls-3">
    <g>
      <path d="M1771.66,1406.25l60.81,1554.86c-2.11,93.55-239.32,93.4-241.28,0l61.26-1554.56,119.21-.3Z"/>
      <path d="M1876.87,1256.12c143.29,14.94,529.81,240.66,562.62,375.25,32.82,134.59-194.17,48.59-252.11,26.56-67.44-25.65-387.73-187.7-381.71-259.37l71.34-142.59-.15.15h.01Z"/>
      <path d="M1546.94,1256.13c1.81,56.73,34.02,105.77,74.66,142.74-93.62,111.81-219.15,191.02-353.56,245.64-57.5,23.39-317.74,127.5-283.57-12.97s415.87-357.45,562.62-375.25l-.15-.15h0Z"/>
      <path d="M1691.72,417.2c97.08-32.59,134.41,226.63,139.68,291.36,5.27,64.73,12.94,381.29-53.43,395.17l-141.48-3.62c-80.53-98.38-51.32-646.99,55.24-682.91h0Z"/>
      <path d="M1711.3,1373.06c64.84,0,117.4-52.69,117.4-117.69s-52.56-117.69-117.4-117.69-117.4,52.69-117.4,117.69,52.56,117.69,117.4,117.69Z"/>
    </g>
  </g>
</svg>