<?xml version="1.0" encoding="UTF-8"?>
<svg id="Layer_1" data-name="Layer 1" xmlns="http://www.w3.org/2000/svg" xmlns:xlink="http://www.w3.org/1999/xlink" viewBox="0 0 1426.53 2554.41">
  <defs>
    <style>
      .cls-1 {
        fill: #fff;
      }

      .cls-2 {
        fill: none;
      }

      .cls-3 {
        clip-path: url(#clippath);
      }
    </style>
    <clipPath id="clippath">
      <rect class="cls-2" x="0" width="1426.16" height="2554.32"/>
    </clipPath>
  </defs>
  <g class="cls-3">
    <g>
      <path class="cls-1" d="M771.48,968.23l59.36,1517.74c-2.06,91.32-233.61,91.17-235.52,0l59.8-1517.45,116.36-.3Z"/>
      <path class="cls-1" d="M874.18,821.69c139.87,14.58,517.16,234.92,549.19,366.29,32.04,131.38-189.53,47.43-246.09,25.92-65.83-25.04-378.47-183.22-372.6-253.18l69.64-139.18-.15.15Z"/>
      <path class="cls-1" d="M552.13,821.69c1.76,55.38,33.2,103.25,72.87,139.33-91.39,109.14-213.92,186.46-345.12,239.78-56.12,22.83-310.15,124.45-276.8-12.67,33.35-137.12,405.94-348.91,549.19-366.29l-.15-.15Z"/>
      <path class="cls-1" d="M693.47,2.79c94.77-31.81,131.2,221.22,136.34,284.4,5.14,63.19,12.64,372.18-52.16,385.74l-138.11-3.54c-78.6-96.03-50.1-631.55,53.92-666.6Z"/>
      <path class="cls-1" d="M712.57,935.84c63.29,0,114.6-51.43,114.6-114.88s-51.31-114.88-114.6-114.88-114.6,51.43-114.6,114.88,51.31,114.88,114.6,114.88Z"/>
    </g>
  </g>
</svg>