<?xml version="1.0" encoding="UTF-8"?>
<svg id="Layer_1" data-name="Layer 1" xmlns="http://www.w3.org/2000/svg" xmlns:xlink="http://www.w3.org/1999/xlink" viewBox="0 0 3358.22 3358.22">
  <defs>
    <style>
      .cls-1 {
        fill: #fff;
      }

      .cls-2 {
        fill: none;
      }

      .cls-3 {
        fill: #3670b3;
      }

      .cls-4 {
        clip-path: url(#clippath);
      }
    </style>
    <clipPath id="clippath">
      <rect class="cls-2" x="956.46" y="403.84" width="1424.06" height="2550.55"/>
    </clipPath>
  </defs>
  <circle class="cls-3" cx="1679.11" cy="1679.11" r="1679.11"/>
  <g class="cls-4">
    <g>
      <path class="cls-1" d="M1726.8,1370.64l59.27,1515.5c-2.06,91.18-233.26,91.03-235.17,0l59.71-1515.2,116.19-.3Z"/>
      <path class="cls-1" d="M1829.35,1224.31c139.66,14.56,516.39,234.57,548.38,365.75,31.99,131.18-189.25,47.36-245.72,25.88-65.73-25-377.91-182.95-372.05-252.8l69.54-138.98-.15.15Z"/>
      <path class="cls-1" d="M1507.77,1224.32c1.76,55.3,33.16,103.09,72.77,139.12-91.25,108.98-213.6,186.18-344.61,239.42-56.04,22.8-309.69,124.27-276.39-12.65,33.3-136.92,405.34-348.4,548.38-365.75l-.15-.15Z"/>
      <path class="cls-1" d="M1648.9,406.63c94.63-31.76,131.01,220.89,136.14,283.98,5.14,63.09,12.62,371.63-52.08,385.16l-137.9-3.53c-78.49-95.89-50.02-630.61,53.84-665.62Z"/>
      <path class="cls-1" d="M1667.97,1338.29c63.2,0,114.43-51.36,114.43-114.71s-51.23-114.71-114.43-114.71-114.43,51.36-114.43,114.71,51.23,114.71,114.43,114.71Z"/>
    </g>
  </g>
</svg>