<?xml version="1.0" encoding="UTF-8"?>
<svg id="Layer_1" data-name="Layer 1" xmlns="http://www.w3.org/2000/svg" xmlns:xlink="http://www.w3.org/1999/xlink" viewBox="0 0 3445.45 3445.45">
  <defs>
    <style>
      .cls-1 {
        fill: #fff;
      }

      .cls-2 {
        fill: none;
      }

      .cls-3 {
        fill: rgba(54, 112, 179, .7);
        stroke: #fff;
        stroke-dasharray: 218.07 218.07;
        stroke-width: 87.23px;
      }

      .cls-4 {
        clip-path: url(#clippath);
      }
    </style>
    <clipPath id="clippath">
      <rect class="cls-2" x="981.3" y="414.33" width="1461.04" height="2616.8"/>
    </clipPath>
  </defs>
  <circle class="cls-3" cx="1722.72" cy="1722.72" r="1679.11"/>
  <g class="cls-4">
    <g>
      <path class="cls-1" d="M1771.65,1406.24l60.81,1554.86c-2.11,93.55-239.32,93.4-241.28,0l61.26-1554.56,119.21-.3Z"/>
      <path class="cls-1" d="M1876.86,1256.11c143.29,14.94,529.81,240.66,562.62,375.25,32.82,134.59-194.17,48.59-252.11,26.56-67.44-25.65-387.73-187.7-381.71-259.37l71.34-142.59-.15.15Z"/>
      <path class="cls-1" d="M1546.94,1256.12c1.81,56.73,34.02,105.77,74.66,142.74-93.62,111.81-219.15,191.02-353.56,245.64-57.5,23.39-317.74,127.5-283.57-12.97,34.17-140.47,415.87-357.45,562.62-375.25l-.15-.15Z"/>
      <path class="cls-1" d="M1691.72,417.19c97.08-32.59,134.41,226.63,139.68,291.36,5.27,64.73,12.94,381.29-53.43,395.17l-141.48-3.62c-80.53-98.38-51.32-646.99,55.24-682.91Z"/>
      <path class="cls-1" d="M1711.29,1373.05c64.84,0,117.4-52.69,117.4-117.69s-52.56-117.69-117.4-117.69-117.4,52.69-117.4,117.69,52.56,117.69,117.4,117.69Z"/>
    </g>
  </g>
</svg>