<?xml version="1.0" encoding="UTF-8"?>
<svg id="Layer_1" data-name="Layer 1" xmlns="http://www.w3.org/2000/svg" viewBox="0 0 236.44 236.44">
  <defs>
    <style>
      .cls-1 {
        fill: #fff;
      }

      .cls-2 {
        fill: none;
      }

      .cls-3 {
        fill: #ffcf0d;
        stroke: #024;
        stroke-miterlimit: 10;
        stroke-width: 8px;
      }

      .cls-4 {
        fill: #024;
      }
    </style>
  </defs>
  <rect class="cls-4" width="236.44" height="236.44"/>
  <path class="cls-1" d="M201.59,12.74h-.82c-12.47,22.59-39.02,29.5-62.61,34.11-41,7.99-91.28,8.55-100.52,59.51-3.79,20.92-.9,41.9,11.31,59.54-8.48,11.05-16.22,23.38-22.17,36-2.14,4.55-5.11,8.91-2.95,13.97,1.84,4.34,6.19,6.79,10.89,7.39.76-4.26,5.52-28.97,17.18-53.35,2.11-4.42,4.44-8.82,7.02-13.09-5.34-8.21-6.57-14.85-6.57-14.85-.68-2.26-1.23-4.59-1.65-6.97-1.45-8.2-1.33-17.02.33-26.22,2.85-15.7,10.18-25.82,23.76-32.82,13.37-6.89,31.24-9.84,48.53-12.7,5.75-.95,11.69-1.93,17.44-3.06,4.31-.84,9.44-1.84,15-3.22,0,0,16.76-3.98,29.69-10.73,7.63-9.82,13.52-20.9,16.27-33.24-.04-.09-.09-.18-.13-.27Z"/>
  <path class="cls-1" d="M201.73,13.03c-.33,1.9-2.32,12.82-6.66,26.81,0,0,5.27,16.75,5.54,24.65.27,4.23.34,8.52.23,12.85-.39,15.34-3.12,30.18-8.01,43.71,0,0-4.14,13.89-10.33,21.58-10.33,16.74-28.14,35.11-57.74,40.1-4.94.83-9.76,1.25-14.35,1.25-7.25,0-14.1-1.05-20.36-3.14-2.04-.68-4.03-1.47-5.98-2.38,0,0-8.14-3.49-11.92-7.43-3.27,3.22-6.24,6.61-9.04,10.14-3.53,4.42-6.79,9.07-10.08,13.9-.37.55-.71,1.11-1.07,1.66-5.72,8.81-11.33,17.7-16.97,26.57.68.07,1.36.11,2.04.11,4.9,0,9.81-1.96,12.39-5.88,3.83-12.37,8.46-24.43,14.01-36.1,13.89,11.32,29.98,16.16,46.98,16.16,5.46,0,11.01-.5,16.61-1.44,80.51-13.56,105.55-117.15,74.71-183.12ZM146.14,112.71c2.16,1.09,5.22,2.63,8.61,4.34-3.39-1.72-6.45-3.26-8.61-4.34ZM142.95,111.09h0s1.22.62,3.2,1.62c-1.86-.94-3.04-1.54-3.19-1.62Z"/>
  <path class="cls-3" d="M145.95,109.97c-.98.4-1.98.78-3,1.12.15.08,1.33.68,3.19,1.62,2.16,1.08,5.22,2.62,8.61,4.34,1.05.52,2.13,1.07,3.22,1.62.55.27,1.1.55,1.65.83.83.42,1.66.84,2.49,1.26.55.28,1.11.55,1.66.83.82.41,1.63.82,2.43,1.23.27.13.54.27.8.4,1.05.53,2.08,1.05,3.06,1.54.49.25.96.49,1.43.72.46.23.91.46,1.34.68,3.48,1.75,5.94,2.99,6.35,3.2-.65-.26-2.06-.02-2.71-.02-2.58-.01-5.15.05-7.73.17-3.23.15-6.46.39-9.68.71-3.21.32-6.43.73-9.62,1.24-2.13.33-4.25.71-6.37,1.12-12.65,2.48-25.01,6.41-36.16,12.96-10.71,6.3-21.1,13.28-30.47,21.48-1.49,1.3-2.92,2.64-4.29,4.01-3.27,3.22-6.24,6.61-9.04,10.14-3.53,4.42-6.79,9.07-10.08,13.9-.37.55-.71,1.11-1.07,1.66-5.72,8.81-11.33,17.7-16.97,26.57l-.27-.04c.01-.08.03-.17.05-.27.02-.14.05-.29.08-.46.16-.86.41-2.11.74-3.69.11-.52.23-1.08.36-1.68.02-.1.05-.2.07-.31.09-.42.19-.85.29-1.3.26-1.13.55-2.35.87-3.65.13-.53.26-1.06.4-1.61.23-.93.48-1.9.75-2.9.13-.47.26-.96.39-1.45.49-1.77,1.02-3.64,1.6-5.58.11-.4.24-.8.36-1.21,1.08-3.53,2.31-7.31,3.73-11.22.26-.73.53-1.46.8-2.19.66-1.77,1.35-3.56,2.09-5.37.44-1.09.9-2.2,1.37-3.3.19-.46.39-.92.6-1.39.25-.59.51-1.18.78-1.77.57-1.28,1.17-2.57,1.78-3.85.02-.05.04-.1.07-.15,1.15-2.4,2.37-4.81,3.66-7.2.21-.39.42-.78.64-1.17.42-.77.86-1.54,1.31-2.32.22-.38.44-.77.67-1.15.24-.41.49-.83.74-1.25,13.27-21.97,33.13-38.6,60.91-40.17l-19.78-13.14s55.8-19.15,85.4-57.26c.07-.09.14-.17.2-.26.41-.53.81-1.06,1.21-1.6,1.43-1.92,2.79-3.89,4.08-5.91.37-.6.75-1.2,1.11-1.81.32-.52.63-1.05.93-1.58.17-.28.33-.57.49-.86.01-.01.02-.03.03-.05.29-.51.58-1.03.85-1.55.73-1.36,1.42-2.75,2.07-4.15.3-.63.59-1.27.87-1.91.37-.87.73-1.74,1.08-2.62.25-.64.49-1.28.72-1.92.27-.73.52-1.47.76-2.21.2-.62.4-1.24.58-1.86.08-.25.15-.51.23-.77.16-.56.31-1.12.46-1.69.04-.17.09-.34.13-.51.17-.66.32-1.32.47-1.98v.02c-.32,1.9-2.31,12.82-6.65,26.81-5.68,18.28-15.37,41.81-30.62,57.28-.52.51-1.04,1.03-1.57,1.54-.27.25-.53.5-.8.75-.81.74-1.63,1.46-2.46,2.16-.56.46-1.12.92-1.69,1.36-1.71,1.32-3.48,2.55-5.31,3.66-.61.37-1.23.72-1.86,1.07-.93.51-1.88.99-2.85,1.45-.65.3-1.3.58-1.96.86Z"/>
  <path class="cls-2" d="M48.95,165.9s5.19,8.16,14.48,15.53"/>
  <path class="cls-2" d="M195.07,39.84c-2.58,2.34-5.95,4.49-9.62,6.41"/>
  <path class="cls-1" d="M162.02,64.27l-29.26,18.22c-16.14,9.11-30.35,12.3-34.59,13.11l-17.45,3.2,16.08,11.7-6.89,3.15c-6.95,3.35-13.63,8.08-19.79,14.05,0,0-6.2,5.99-6.2,5.99-.78-11.65-1.2-22.78,3.25-33.85,1.09-2.71,2.26-5.5,4.33-7.63,3.5-3.6,9.13-4.47,13.75-5.81,12.37-3.61,24.76-7.12,37.23-10.38,2.31-.61,4.63-1.21,6.94-1.8,0,0,32.6-9.94,32.6-9.94Z"/>
  <path class="cls-2" d="M72.15,171.03c-.47-.49-.88-.99-1.19-1.49"/>
  <path class="cls-1" d="M175.52,136.67l-8.74,7.46c-.51.42-1.02.85-1.54,1.27-1.17.94-2.36,1.85-3.56,2.74-1.75,1.3-3.53,2.56-5.33,3.78-2.24,1.52-4.53,2.99-6.85,4.39-2.66,1.6-5.37,3.13-8.13,4.56-2.99,1.55-6.05,2.99-9.16,4.29s-6.57,2.57-9.94,3.59-6.93,1.87-10.47,2.45c-2.85.46-5.76.81-8.64.86-2.64.04-5.33-.25-7.83-1.16-1.81-.66-3.62-1.31-5.43-1.97l6.22-4.11c1.41-1.08,35.01-26.5,67.91-27.72l11.48-.42Z"/>
  <path class="cls-1" d="M190.62,86.01c-.1,1.13-.21,2.25-.35,3.38-.64,5.26-1.99,10.39-3.14,15.55-1.24,5.6-2.71,10.98-4.32,16.58-1-.28-1.16-.61-2.08-1.07l-3.54-1.79c-4.85-2.45-9.71-4.89-14.56-7.34-.2-.1-.4-.2-.6-.3l5.71-5.87c.32-.33.64-.67.95-1.02.37-.39.73-.78,1.09-1.18.4-.45.8-.89,1.2-1.34,2.7-3.03,5.37-6.11,7.68-9.45,2.86-4.13,4.76-8.8,6.62-13.44,1.7-4.26,3.35-8.59,4.42-13.06.13-.55.25-1.11.36-1.67.04.36.07.72.11,1.07.09.94.18,1.88.26,2.82.11,1.32.22,2.64.31,3.96.34,4.71.3,9.45-.1,14.16Z"/>
</svg>